<svg width="114" height="24" viewBox="0 0 114 24" fill="none" xmlns="http://www.w3.org/2000/svg">
<path d="M5 13H114L109.5 20H0L5 13Z" fill="#4E825F"/>
<path d="M7.432 8.672C8.04 8.672 8.62667 8.40533 9.192 7.872C9.75733 7.33867 10.216 6.67733 10.568 5.888C10.9307 5.09867 11.112 4.36267 11.112 3.68H13.832C13.832 4.39467 13.704 5.15733 13.448 5.968C13.192 6.768 12.8347 7.52533 12.376 8.24L14.856 9.2V12.112L11.544 10.832V9.36C10.9787 9.98933 10.344 10.4853 9.64 10.848C8.94667 11.2107 8.21067 11.392 7.432 11.392H7V8.672H7.432ZM21.656 3.52V18.64H19.096V3.52H21.656ZM18.136 3.52V14.8H15.576V8.384H14.328V5.824H15.576V3.52H18.136ZM24.776 13.552H27.496V16.16H37.016V18.88H24.776V13.552ZM37.016 3.68V9.36H24.776V3.68H37.016ZM34.296 6.96V6.08H27.496V6.96H34.296ZM38.28 12.56H32.76V14.624H30.2V12.56H23.72V10H38.28V12.56ZM41.416 12.88H44.136V16.16H53.816V18.88H41.416V12.88ZM53.016 3.52V15.12H50.296V8.224H48.84V5.824H50.296V3.52H53.016ZM40.44 8.784C41.3147 8.784 42.0347 8.56533 42.6 8.128C43.1653 7.68 43.5867 7.05067 43.864 6.24H39.88V3.68H48.568V6.24H46.664C46.4933 6.96533 46.264 7.61067 45.976 8.176L48.568 9.472V12.16L45.288 10.528V9.264C44.7333 9.97867 44.0507 10.5333 43.24 10.928C42.4293 11.312 41.496 11.504 40.44 11.504H39.24V8.784H40.44ZM72.2035 3.68V5.936H62.6835V6.336H71.7235V8.064H62.6835V8.432H72.2035V10.688H59.9635V3.68H72.2035ZM73.4675 14.64H58.9075V12.08H73.4675V14.64ZM78.7475 7.04V6.16H75.0675V3.68H81.4675V7.04C81.4675 7.60533 81.3128 8.04267 81.0035 8.352C80.7048 8.65067 80.2728 8.8 79.7075 8.8H77.7875V9.68C78.8222 9.68 79.7128 9.62133 80.4595 9.504C81.2168 9.376 81.9848 9.12533 82.7635 8.752V3.52H85.3235V6.944H86.2835V3.52H88.8435V18.64H86.2835V9.504H85.3235V14.8H82.7635V10.864C81.5582 11.3973 80.3742 11.7493 79.2115 11.92C78.0488 12.08 76.6675 12.16 75.0675 12.16V7.04H78.7475ZM100.268 3.68C100.214 4.74667 100.113 5.62133 99.9635 6.304H101.484V3.52H104.204V18.624H101.484V8.864H98.9715C98.3208 9.86667 97.3608 10.656 96.0915 11.232C94.8328 11.7973 93.1582 12.1333 91.0675 12.24V9.84C93.1155 9.776 94.6835 9.392 95.7715 8.688C93.4675 8.86933 91.7448 8.96 90.6035 8.96V6.88C92.8328 6.88 95.0622 6.816 97.2915 6.688C97.3342 6.496 97.3662 6.29333 97.3875 6.08H91.7075V3.68H100.268Z" fill="white"/>
</svg>
